<svg width="735" height="767" viewBox="0 0 735 767" fill="none" xmlns="http://www.w3.org/2000/svg">
<path fill-rule="evenodd" clip-rule="evenodd" d="M322.023 72.8466C399.27 63.8247 486.185 38.2364 549.376 83.5724C612.609 128.938 602.823 223.676 632.519 295.61C665.845 376.337 745.77 443.778 733.787 530.287C721.369 619.934 650.73 696.328 571.065 739.273C496.057 779.708 405.951 766.995 322.023 752.258C250.371 739.677 186.259 707.008 129.333 661.712C74.6433 618.197 21.3475 567.491 4.54825 499.65C-11.7013 434.03 19.1537 369.161 41.0501 305.203C62.5599 242.375 79.0603 174.846 130.236 132.525C183.126 88.7868 253.854 80.8082 322.023 72.8466Z" fill="#FF0000"/>
<path fill-rule="evenodd" clip-rule="evenodd" d="M310.275 1.83956C390.596 -9.7276 438.041 91.9649 503.311 140.185C567.844 187.861 657.98 208.941 690.113 282.459C723.133 358.005 695.549 444.372 670.613 522.957C645.515 602.057 618.761 689.892 547.396 732.245C477.706 773.604 391.137 742.145 310.275 736.808C235.895 731.898 151.618 750.692 94.8565 702.374C38.8066 654.661 35.7071 570.59 28.9122 497.297C23.3753 437.572 37.2078 380.054 59.8246 324.5C80.9107 272.707 119.519 234.693 153.808 190.518C205.163 124.355 227.375 13.778 310.275 1.83956Z" fill="#FDD816"/>
</svg>
