<svg width="450" height="500" viewBox="0 0 450 500" fill="none" xmlns="http://www.w3.org/2000/svg">
<path fill-rule="evenodd" clip-rule="evenodd" d="M194.132 4.54106C238.403 9.00087 281.562 21.4845 316.916 49.678C351.673 77.3954 368.854 119.575 389.135 160.047C414.137 209.941 458.105 257.211 448.703 312.666C439.099 369.312 386.938 405.648 341.887 438.722C297.486 471.318 248.215 504.212 194.132 499.558C141.627 495.039 96.383 457.362 63.0642 414.726C34.733 378.472 36.4562 328.886 25.3284 283.55C15.121 241.964 -3.82678 203.247 0.681802 160.574C5.98932 110.34 14.5592 53.9598 52.849 23.076C91.3623 -7.98817 145.702 -0.337784 194.132 4.54106Z" fill="#FDD816"/>
</svg>
