<svg width="450" height="500" viewBox="0 0 450 500" fill="none" xmlns="http://www.w3.org/2000/svg">
<path fill-rule="evenodd" clip-rule="evenodd" d="M20.6133 275.859C12.8667 225.526 -15.4609 171.559 11.1802 127.287C38.1959 82.3924 102.259 76.1243 152.851 56.106C209.183 33.8166 264.84 -13.9991 322.904 3.94528C380.97 21.8903 404.818 87.1769 426.788 140.765C444.472 183.901 432.272 229.676 434.379 275.859C436.62 324.97 464.842 376.625 439.511 419.637C413.524 463.761 357.289 484.734 304.898 495.714C255.785 506.008 205.175 496.778 158.778 478.477C115.403 461.368 77.9406 433.397 52.5651 396.184C28.2342 360.503 27.0679 317.797 20.6133 275.859Z" fill="#F31F1F"/>
</svg>
