<svg width="450" height="500" viewBox="0 0 450 500" fill="none" xmlns="http://www.w3.org/2000/svg">
<path fill-rule="evenodd" clip-rule="evenodd" d="M221.219 4.65327C280.645 -1.23564 353.489 -8.28301 393.78 30.201C434.563 69.156 398.408 131.983 408.877 183.898C417.179 225.063 458.457 260.387 448.444 301.262C438.105 343.472 391.213 368.193 356.24 398.781C313.289 436.347 282.1 499.702 221.219 499.999C160.388 500.295 126.696 438.745 85.0954 400.103C51.8856 369.254 16.3295 339.317 4.17108 298.383C-7.53888 258.959 7.91388 219.384 19.7133 179.981C32.3493 137.783 39.59 92.6152 75.0187 61.7892C113.751 28.0892 166.812 10.0448 221.219 4.65327Z" fill="#FDD816"/>
</svg>
