<svg width="56" height="52" viewBox="0 0 56 52" fill="none" xmlns="http://www.w3.org/2000/svg">
<rect width="56" height="52" rx="10.0058" fill="#1384C1"/>
<path d="M45.6067 8.00915L36.7321 8C26.7618 8 20.3185 12.2502 20.3185 18.8284V23.8211H11.3954C10.6244 23.8211 10 24.223 10 24.7188V31.9525C10 32.4484 10.6251 32.8497 11.3954 32.8497H20.3185V51.1029C20.3185 51.5986 20.9429 52 21.7139 52H33.356C34.127 52 34.7514 51.5981 34.7514 51.1029V32.8497H45.1845C45.9556 32.8497 46.58 32.4484 46.58 31.9525L46.5842 24.7188C46.5842 24.4807 46.4368 24.2528 46.1755 24.0843C45.9143 23.9159 45.5583 23.8211 45.188 23.8211H34.7514V19.5888C34.7514 17.5546 35.5054 16.5219 39.6269 16.5219L45.6053 16.5205C46.3756 16.5205 47 16.1186 47 15.6233V8.90634C47 8.41151 46.3763 8.01007 45.6067 8.00915Z" fill="white"/>
</svg>
