<svg width="1240" height="1083" viewBox="0 0 1240 1083" fill="none" xmlns="http://www.w3.org/2000/svg">
<g filter="url(#filter0_f)">
<path d="M1165.76 586.619L1176.1 598.342C1182.26 605.332 1176.97 616.292 1167.66 615.815L644.634 588.957L106.031 625.529C104.726 625.618 103.416 625.463 102.169 625.072L32.5035 603.228C26.7155 601.413 23.6554 595.095 25.8203 589.428L40.8958 549.971C41.9552 547.198 44.1361 545.002 46.9013 543.922L104.066 521.612C110.483 519.108 112.805 511.218 108.767 505.637L76.1989 460.619C72.1376 455.006 74.5147 447.067 80.9931 444.609L121.473 429.251C122.469 428.873 123.517 428.649 124.58 428.585L798.351 388.446C798.869 388.415 799.389 388.423 799.907 388.469L1057.52 411.32C1058.25 411.384 1058.96 411.524 1059.66 411.737L1108.3 426.569C1110.58 427.265 1112.56 428.715 1113.91 430.683L1145.99 477.459C1146.27 477.871 1146.52 478.302 1146.74 478.75L1171.44 528.743C1172.49 530.867 1172.79 533.285 1172.3 535.602L1163.36 577.46C1162.66 580.72 1163.55 584.118 1165.76 586.619Z" fill="#FDD816"/>
<path d="M1165.76 586.619L1176.1 598.342C1182.26 605.332 1176.97 616.292 1167.66 615.815L644.634 588.957L106.031 625.529C104.726 625.618 103.416 625.463 102.169 625.072L32.5035 603.228C26.7155 601.413 23.6554 595.095 25.8203 589.428L40.8958 549.971C41.9552 547.198 44.1361 545.002 46.9013 543.922L104.066 521.612C110.483 519.108 112.805 511.218 108.767 505.637L76.1989 460.619C72.1376 455.006 74.5147 447.067 80.9931 444.609L121.473 429.251C122.469 428.873 123.517 428.649 124.58 428.585L798.351 388.446C798.869 388.415 799.389 388.423 799.907 388.469L1057.52 411.32C1058.25 411.384 1058.96 411.524 1059.66 411.737L1108.3 426.569C1110.58 427.265 1112.56 428.715 1113.91 430.683L1145.99 477.459C1146.27 477.871 1146.52 478.302 1146.74 478.75L1171.44 528.743C1172.49 530.867 1172.79 533.285 1172.3 535.602L1163.36 577.46C1162.66 580.72 1163.55 584.118 1165.76 586.619Z" fill="url(#paint0_linear)"/>
</g>
<defs>
<filter id="filter0_f" x="0.80585" y="0.862491" width="1238.83" height="1081.36" filterUnits="userSpaceOnUse" color-interpolation-filters="sRGB">
<feFlood flood-opacity="0" result="BackgroundImageFix"/>
<feBlend mode="normal" in="SourceGraphic" in2="BackgroundImageFix" result="shape"/>
<feGaussianBlur stdDeviation="0.526274" result="effect1_foregroundBlur"/>
</filter>
<linearGradient id="paint0_linear" x1="418.533" y1="892.959" x2="736.346" y2="258.643" gradientUnits="userSpaceOnUse">
<stop stop-color="white"/>
<stop offset="1" stop-color="white" stop-opacity="0"/>
</linearGradient>
</defs>
</svg>
