<svg width="1115" height="882" viewBox="0 0 1115 882" fill="none" xmlns="http://www.w3.org/2000/svg">
<g filter="url(#filter0_f)">
<path d="M1065.92 342.498L1077.86 351.044C1085.23 356.328 1082.91 367.848 1074.07 369.864L589.969 480.187L105.866 655.442C104.577 655.909 103.21 656.119 101.84 656.062L34.5849 653.227C28.4382 652.968 23.823 647.515 24.5833 641.41L29.7989 599.532C30.1473 596.734 31.6032 594.194 33.8405 592.479L81.6956 555.797C86.9578 551.764 87.2251 543.928 82.25 539.546L42.5623 504.583C37.5571 500.174 37.8634 492.28 43.1952 488.272L77.1625 462.737C78.0217 462.091 78.9749 461.581 79.9888 461.223L686.875 247.355C687.383 247.176 687.905 247.036 688.434 246.937L928.631 201.921C929.387 201.779 930.157 201.721 930.926 201.747L977.989 203.338C980.521 203.423 982.937 204.42 984.794 206.144L1023.9 242.454C1024.28 242.804 1024.63 243.18 1024.95 243.581L1058.3 285.144C1059.75 286.952 1060.56 289.187 1060.61 291.504L1061.53 334.166C1061.6 337.48 1063.23 340.567 1065.92 342.498Z" fill="#FDD816"/>
<path d="M1065.92 342.498L1077.86 351.044C1085.23 356.328 1082.91 367.848 1074.07 369.864L589.969 480.187L105.866 655.442C104.577 655.909 103.21 656.119 101.84 656.062L34.5849 653.227C28.4382 652.968 23.823 647.515 24.5833 641.41L29.7989 599.532C30.1473 596.734 31.6032 594.194 33.8405 592.479L81.6956 555.797C86.9578 551.764 87.2251 543.928 82.25 539.546L42.5623 504.583C37.5571 500.174 37.8634 492.28 43.1952 488.272L77.1625 462.737C78.0217 462.091 78.9749 461.581 79.9888 461.223L686.875 247.355C687.383 247.176 687.905 247.036 688.434 246.937L928.631 201.921C929.387 201.779 930.157 201.721 930.926 201.747L977.989 203.338C980.521 203.423 982.937 204.42 984.794 206.144L1023.9 242.454C1024.28 242.804 1024.63 243.18 1024.95 243.581L1058.3 285.144C1059.75 286.952 1060.56 289.187 1060.61 291.504L1061.53 334.166C1061.6 337.48 1063.23 340.567 1065.92 342.498Z" fill="url(#paint0_linear)"/>
</g>
<defs>
<filter id="filter0_f" x="0.90668" y="0.320132" width="1113.13" height="881.185" filterUnits="userSpaceOnUse" color-interpolation-filters="sRGB">
<feFlood flood-opacity="0" result="BackgroundImageFix"/>
<feBlend mode="normal" in="SourceGraphic" in2="BackgroundImageFix" result="shape"/>
<feGaussianBlur stdDeviation="0.526274" result="effect1_foregroundBlur"/>
</filter>
<linearGradient id="paint0_linear" x1="449.309" y1="831.417" x2="599.632" y2="138.081" gradientUnits="userSpaceOnUse">
<stop stop-color="white"/>
<stop offset="1" stop-color="white" stop-opacity="0"/>
</linearGradient>
</defs>
</svg>
