<svg width="250" height="277" viewBox="0 0 250 277" fill="none" xmlns="http://www.w3.org/2000/svg">
<path d="M199.107 92.3254C219.95 98.9243 226.973 124.878 212.302 141.087L105.137 259.481C89.2038 277.083 60.1081 270.096 53.9066 247.177L8.82768 80.5834C2.62616 57.665 24.2281 36.959 46.8634 44.1253L199.107 92.3254Z" fill="#FDD816"/>
<ellipse cx="31" cy="70" rx="9" ry="8" fill="#E3C735"/>
<ellipse cx="101" cy="119" rx="9" ry="8" fill="#E3C735"/>
<ellipse cx="54" cy="94" rx="9" ry="8" fill="#E3C735"/>
<ellipse cx="86" cy="70" rx="9" ry="8" fill="#E3C735"/>
<ellipse cx="152" cy="147" rx="9" ry="8" fill="#E3C735"/>
<ellipse cx="116" cy="206" rx="9" ry="8" fill="#E3C735"/>
<ellipse cx="134" cy="99" rx="9" ry="8" fill="#E3C735"/>
<ellipse cx="200" cy="113" rx="9" ry="8" fill="#E3C735"/>
<ellipse cx="98" cy="157" rx="9" ry="8" fill="#E3C735"/>
<ellipse cx="70" cy="240" rx="9" ry="8" fill="#E3C735"/>
<ellipse cx="54" cy="182" rx="9" ry="8" fill="#E3C735"/>
<ellipse cx="49" cy="137" rx="9" ry="8" fill="#E3C735"/>
</svg>
