<svg width="65" height="52" viewBox="0 0 65 52" fill="none" xmlns="http://www.w3.org/2000/svg">
<path d="M64.081 6.01845C61.6585 7.07436 59.2354 7.73379 56.814 7.99864C59.5488 6.33575 61.3989 3.98649 62.3629 0.95107C59.8608 2.45533 57.1913 3.48449 54.3525 4.03905C51.8514 1.34672 48.7783 0 45.1307 0C41.6406 0 38.665 1.24701 36.2021 3.74157C33.741 6.23601 32.5103 9.25149 32.5103 12.7884C32.5103 13.7385 32.6143 14.7155 32.8229 15.7184C27.6651 15.4545 22.8267 14.1414 18.3069 11.7789C13.7874 9.41623 9.95176 6.2685 6.80001 2.33565C5.65382 4.31489 5.08056 6.46651 5.08056 8.78928C5.08056 10.9801 5.58841 13.0129 6.60484 14.887C7.62059 16.7609 8.98846 18.2785 10.7077 19.44C8.67561 19.3607 6.77412 18.8195 5.00311 17.8164V17.9747C5.00311 21.0633 5.96038 23.7749 7.87474 26.1117C9.78933 28.4482 12.2055 29.9189 15.1227 30.5263C14.0286 30.8162 12.9213 30.9615 11.8014 30.9615C11.0719 30.9615 10.2773 30.8956 9.4179 30.7645C10.2253 33.3244 11.7102 35.4286 13.872 37.0795C16.0342 38.7289 18.4828 39.5793 21.218 39.6334C16.6336 43.2754 11.4109 45.0965 5.54996 45.0965C4.42967 45.0965 3.41407 45.0448 2.5022 44.9387C8.3633 48.7656 14.8233 50.6792 21.8825 50.6792C26.3629 50.6792 30.5698 49.9606 34.5019 48.5215C38.4361 47.0836 41.7959 45.1565 44.5834 42.7405C47.3702 40.3257 49.7735 37.5475 51.7922 34.4064C53.8106 31.2652 55.3145 27.9858 56.3053 24.5676C57.2946 21.1487 57.7897 17.7246 57.7897 14.2925C57.7897 13.5533 57.7767 12.9993 57.7503 12.6296C60.2258 10.8091 62.3356 8.60468 64.081 6.01845Z" fill="#4AA8DC"/>
</svg>
