<svg width="1066" height="795" viewBox="0 0 1066 795" fill="none" xmlns="http://www.w3.org/2000/svg">
<g filter="url(#filter0_f)">
<path d="M1028.79 246.697L1041.55 253.959C1049.43 258.448 1048.32 270.146 1039.73 273.07L569.705 433.061L106.416 657.634C105.182 658.232 103.844 658.583 102.476 658.668L35.2895 662.832C29.1492 663.212 23.9927 658.268 24.115 652.117L24.9541 609.923C25.0102 607.105 26.1944 604.427 28.2416 602.489L72.0294 561.037C76.8443 556.479 76.2966 548.658 70.8934 544.815L27.79 514.163C22.354 510.297 21.839 502.414 26.7259 497.874L57.8582 468.95C58.6458 468.219 59.5408 467.612 60.5121 467.151L641.912 191.426C642.399 191.195 642.903 191.002 643.42 190.848L877.644 121.135C878.381 120.916 879.141 120.778 879.908 120.724L926.882 117.42C929.409 117.242 931.916 117.982 933.942 119.504L976.611 151.557C977.022 151.866 977.41 152.204 977.772 152.569L1015.25 190.446C1016.88 192.093 1017.92 194.232 1018.21 196.531L1023.55 238.867C1023.97 242.156 1025.91 245.058 1028.79 246.697Z" fill="#FDD816"/>
<path d="M1028.79 246.697L1041.55 253.959C1049.43 258.448 1048.32 270.146 1039.73 273.07L569.705 433.061L106.416 657.634C105.182 658.232 103.844 658.583 102.476 658.668L35.2895 662.832C29.1492 663.212 23.9927 658.268 24.115 652.117L24.9541 609.923C25.0102 607.105 26.1944 604.427 28.2416 602.489L72.0294 561.037C76.8443 556.479 76.2966 548.658 70.8934 544.815L27.79 514.163C22.354 510.297 21.839 502.414 26.7259 497.874L57.8582 468.95C58.6458 468.219 59.5408 467.612 60.5121 467.151L641.912 191.426C642.399 191.195 642.903 191.002 643.42 190.848L877.644 121.135C878.381 120.916 879.141 120.778 879.908 120.724L926.882 117.42C929.409 117.242 931.916 117.982 933.942 119.504L976.611 151.557C977.022 151.866 977.41 152.204 977.772 152.569L1015.25 190.446C1016.88 192.093 1017.92 194.232 1018.21 196.531L1023.55 238.867C1023.97 242.156 1025.91 245.058 1028.79 246.697Z" fill="url(#paint0_linear)"/>
</g>
<defs>
<filter id="filter0_f" x="0.973819" y="0.32471" width="1064.66" height="794.097" filterUnits="userSpaceOnUse" color-interpolation-filters="sRGB">
<feFlood flood-opacity="0" result="BackgroundImageFix"/>
<feBlend mode="normal" in="SourceGraphic" in2="BackgroundImageFix" result="shape"/>
<feGaussianBlur stdDeviation="0.526274" result="effect1_foregroundBlur"/>
</filter>
<linearGradient id="paint0_linear" x1="466.274" y1="796.997" x2="543.795" y2="91.8011" gradientUnits="userSpaceOnUse">
<stop stop-color="white"/>
<stop offset="1" stop-color="white" stop-opacity="0"/>
</linearGradient>
</defs>
</svg>
