<svg width="65" height="52" viewBox="0 0 65 52" fill="none" xmlns="http://www.w3.org/2000/svg">
<g clip-path="url(#clip0)">
<path d="M64.6555 44.6563C64.5768 44.4301 64.5034 44.2425 64.4352 44.0921C63.3074 41.3841 61.1523 38.06 57.9712 34.1191L57.9039 34.0288L57.8705 33.9846L57.8363 33.9392H57.8022C56.3582 32.1041 55.444 30.8703 55.0612 30.2386C54.3608 29.0352 54.2038 27.8171 54.5867 26.5829C54.8571 25.6504 55.8733 23.6811 57.6326 20.6724C58.5578 19.0778 59.2907 17.7999 59.8322 16.8371C63.7357 9.91774 65.428 5.49618 64.9087 3.57071L64.7072 3.12075C64.5716 2.84986 64.2219 2.60204 63.6584 2.37603C63.0939 2.15049 62.372 2.1132 61.4919 2.2635L51.7455 2.35327C51.5876 2.27867 51.362 2.28562 51.0685 2.37603C50.7751 2.46643 50.6282 2.51179 50.6282 2.51179L50.4585 2.6248L50.324 2.76056C50.2112 2.85033 50.087 3.00822 49.9515 3.23391C49.8166 3.45881 49.7042 3.72275 49.6138 4.02352C48.5527 7.6635 47.3463 11.0478 45.9924 14.1762C45.1574 16.0416 44.3908 17.6583 43.6907 19.0271C42.9913 20.3955 42.4047 21.4037 41.9312 22.0499C41.457 22.6968 41.0293 23.2151 40.6448 23.6066C40.2613 23.9982 39.9685 24.1637 39.7654 24.1031C39.5622 24.0426 39.3708 23.9826 39.1895 23.9225C38.8739 23.6516 38.6201 23.2832 38.4286 22.8169C38.2362 22.3507 38.1069 21.7639 38.0393 21.0569C37.9717 20.3495 37.932 19.741 37.9207 19.2294C37.9099 18.7185 37.9148 17.9957 37.9379 17.0632C37.9613 16.1303 37.9717 15.499 37.9717 15.1681C37.9717 14.0248 37.9886 12.7839 38.0221 11.4453C38.0562 10.1066 38.0838 9.04596 38.1069 8.26458C38.13 7.48237 38.1407 6.65487 38.1407 5.78244C38.1407 4.91001 38.1007 4.22581 38.0221 3.72923C37.9444 3.23328 37.8251 2.75187 37.6678 2.28515C37.5095 1.81891 37.2778 1.45824 36.9739 1.20221C36.6694 0.946487 36.2908 0.743552 35.8403 0.592778C34.6443 0.231954 33.1214 0.0367656 31.271 0.00642049C27.0747 -0.0536376 24.3784 0.307658 23.1826 1.08984C22.7088 1.42031 22.2801 1.87186 21.8967 2.44304C21.4905 3.1051 21.4339 3.4664 21.7271 3.52583C23.081 3.79625 24.0395 4.44314 24.6036 5.46585L24.8069 6.00782C24.965 6.39882 25.1229 7.09107 25.2809 8.08362C25.4387 9.07612 25.5405 10.1741 25.5853 11.3768C25.6979 13.5732 25.6979 15.4534 25.5853 17.0174C25.4724 18.5821 25.3657 19.8001 25.2639 20.6726C25.1621 21.545 25.0099 22.2519 24.8069 22.7932C24.6036 23.3347 24.4684 23.6657 24.4006 23.7858C24.3329 23.9059 24.2765 23.9816 24.2317 24.0113C23.9384 24.1611 23.6334 24.2375 23.3177 24.2375C23.0016 24.2375 22.6183 24.0266 22.1671 23.6053C21.7161 23.1839 21.248 22.6052 20.7628 21.868C20.2777 21.1308 19.7305 20.1004 19.1211 18.7769C18.5122 17.4535 17.8804 15.8892 17.2261 14.0844L16.6847 12.7754C16.3463 11.9333 15.884 10.7072 15.2974 9.09809C14.7104 7.48839 14.1916 5.93129 13.7405 4.42715C13.5602 3.79545 13.2894 3.31451 12.9285 2.98356L12.7591 2.8478C12.6465 2.72769 12.4657 2.60014 12.2177 2.46422C11.9694 2.32846 11.7103 2.2311 11.4393 2.17119L2.16636 2.26097C1.21879 2.26097 0.575848 2.54719 0.237308 3.11885L0.101822 3.38927C0.0341383 3.53989 0 3.78044 0 4.11155C0 4.44249 0.0676839 4.8487 0.20317 5.32961C1.55685 9.57164 3.02894 13.6627 4.61945 17.6034C6.20997 21.5442 7.5921 24.7186 8.76499 27.1238C9.93814 29.5307 11.1339 31.8023 12.3524 33.9375C13.5708 36.0735 14.3773 37.4424 14.7719 38.0437C15.167 38.6462 15.4773 39.0966 15.7029 39.3974L16.5491 40.4802C17.0906 41.2023 17.8857 42.0671 18.9349 43.0747C19.9843 44.083 21.1461 45.0753 22.4208 46.0538C23.6957 47.031 25.179 47.8279 26.8713 48.4445C28.5634 49.0616 30.2104 49.3094 31.8124 49.1898H35.7045C36.4936 49.0988 37.0916 48.7682 37.4982 48.1971L37.6327 47.9709C37.7234 47.791 37.8082 47.5124 37.8862 47.1367C37.9655 46.761 38.0048 46.3467 38.0048 45.8961C37.9818 44.6026 38.0555 43.4369 38.2245 42.3994C38.3932 41.3619 38.5853 40.5798 38.8004 40.053C39.0153 39.5267 39.2577 39.0826 39.5278 38.7225C39.7982 38.3617 39.9909 38.1432 40.104 38.0679C40.2165 37.9922 40.3062 37.9408 40.3738 37.91C40.9152 37.6695 41.5525 37.9025 42.2864 38.61C43.0199 39.317 43.7079 40.1898 44.3511 41.2273C44.9943 42.2656 45.7668 43.4308 46.669 44.7239C47.5722 46.0178 48.3616 46.9794 49.0379 47.6121L49.7146 48.1537C50.1667 48.5147 50.7533 48.8458 51.4754 49.1465C52.1963 49.4472 52.8278 49.5226 53.3699 49.3723L62.0334 49.192C62.8904 49.192 63.557 49.0026 64.0299 48.6274C64.504 48.2512 64.7855 47.837 64.8762 47.3867C64.9669 46.9356 64.9717 46.4239 64.8934 45.8514C64.8131 45.2807 64.7341 44.8816 64.6555 44.6563Z" fill="#4296C5"/>
</g>
<defs>
<clipPath id="clip0">
<rect width="65" height="52" fill="white"/>
</clipPath>
</defs>
</svg>
